<?xml version="1.0" encoding="utf-8"?>
<!-- Generator: Adobe Illustrator 24.0.1, SVG Export Plug-In . SVG Version: 6.00 Build 0)  -->
<svg version="1.1" id="Warstwa_1" xmlns="http://www.w3.org/2000/svg" xmlns:xlink="http://www.w3.org/1999/xlink" x="0px" y="0px"
	 viewBox="0 0 48 48" style="enable-background:new 0 0 48 48;" xml:space="preserve">
<style type="text/css">
	.st0{fill:#E85C0C;}
	.st1{fill:#3C3C3B;}
</style>
<g>
	<path class="st0" d="M20.17,34.81c-3.77-3.77-5.25-8.96-4.45-13.85c-2.34,6.08-1.76,12.31,2.11,16.18
		c3.88,3.88,25.93,8.85,25.93,8.85S23.94,38.58,20.17,34.81z"/>
	<g>
		<path class="st0" d="M28.17,7.11c3.77,3.77,5.25,8.96,4.45,13.85c2.34-6.08,1.76-12.31-2.11-16.18
			C26.63,0.9,20.41,0.32,14.32,2.66C19.21,1.85,24.4,3.34,28.17,7.11z"/>
	</g>
	<g>
		<path class="st0" d="M37.93,24.87c-3.77,3.77-8.96,5.25-13.85,4.45c6.08,2.34,12.31,1.76,16.18-2.11
			c3.88-3.88,4.46-10.09,2.11-16.18C43.18,15.91,41.7,21.1,37.93,24.87z"/>
		<path class="st0" d="M10.41,16.86c3.77-3.77,8.96-5.25,13.85-4.45c-6.08-2.34-12.31-1.76-16.18,2.11
			C4.2,18.41,3.62,24.62,5.97,30.7C5.16,25.82,6.64,20.63,10.41,16.86z"/>
	</g>
	<path class="st1" d="M36.73,13.97c0,5.33-2.63,10.04-6.65,12.93c5.96-2.65,9.94-7.45,9.94-12.93c0-5.49-3.98-10.3-9.94-12.93
		C34.11,3.93,36.73,8.64,36.73,13.97z"/>
	<path class="st1" d="M11.61,27.76c0-5.33,2.63-10.04,6.65-12.93c-5.96,2.65-9.94,7.45-9.94,12.93c0,5.49,3.98,10.3,9.94,12.93
		C14.23,37.8,11.61,33.09,11.61,27.76z"/>
	<path class="st1" d="M31.07,33.43c-5.33,0-10.04-2.63-12.93-6.65c2.65,5.96,7.45,9.94,12.93,9.94c5.49,0,8.07-3.18,12.93-9.94
		C41.11,30.8,36.39,33.43,31.07,33.43z"/>
	<path class="st1" d="M17.28,8.3c5.33,0,10.04,2.63,12.93,6.65c-2.65-5.96-7.45-9.94-12.93-9.94c-5.49,0-10.3,3.98-12.93,9.94
		C7.22,10.93,11.95,8.3,17.28,8.3z"/>
</g>
</svg>
