<?xml version="1.0" encoding="utf-8"?>
<svg xmlns="http://www.w3.org/2000/svg" xmlns:xlink="http://www.w3.org/1999/xlink" style="margin: auto; background: none; display: block; shape-rendering: auto;" width="18px" height="18px" viewBox="0 0 100 100" preserveAspectRatio="xMidYMid">
<g transform="rotate(0 50 50)">
  <rect x="38.5" y="6.5" rx="6.21" ry="6.21" width="23" height="23" fill="#ef672f">
    <animate attributeName="opacity" values="1;0" keyTimes="0;1" dur="0.7575757575757576s" begin="-0.6493506493506493s" repeatCount="indefinite"></animate>
  </rect>
</g><g transform="rotate(51.42857142857143 50 50)">
  <rect x="38.5" y="6.5" rx="6.21" ry="6.21" width="23" height="23" fill="#ef672f">
    <animate attributeName="opacity" values="1;0" keyTimes="0;1" dur="0.7575757575757576s" begin="-0.5411255411255411s" repeatCount="indefinite"></animate>
  </rect>
</g><g transform="rotate(102.85714285714286 50 50)">
  <rect x="38.5" y="6.5" rx="6.21" ry="6.21" width="23" height="23" fill="#ef672f">
    <animate attributeName="opacity" values="1;0" keyTimes="0;1" dur="0.7575757575757576s" begin="-0.4329004329004329s" repeatCount="indefinite"></animate>
  </rect>
</g><g transform="rotate(154.28571428571428 50 50)">
  <rect x="38.5" y="6.5" rx="6.21" ry="6.21" width="23" height="23" fill="#ef672f">
    <animate attributeName="opacity" values="1;0" keyTimes="0;1" dur="0.7575757575757576s" begin="-0.3246753246753247s" repeatCount="indefinite"></animate>
  </rect>
</g><g transform="rotate(205.71428571428572 50 50)">
  <rect x="38.5" y="6.5" rx="6.21" ry="6.21" width="23" height="23" fill="#ef672f">
    <animate attributeName="opacity" values="1;0" keyTimes="0;1" dur="0.7575757575757576s" begin="-0.21645021645021645s" repeatCount="indefinite"></animate>
  </rect>
</g><g transform="rotate(257.14285714285717 50 50)">
  <rect x="38.5" y="6.5" rx="6.21" ry="6.21" width="23" height="23" fill="#ef672f">
    <animate attributeName="opacity" values="1;0" keyTimes="0;1" dur="0.7575757575757576s" begin="-0.10822510822510822s" repeatCount="indefinite"></animate>
  </rect>
</g><g transform="rotate(308.57142857142856 50 50)">
  <rect x="38.5" y="6.5" rx="6.21" ry="6.21" width="23" height="23" fill="#ef672f">
    <animate attributeName="opacity" values="1;0" keyTimes="0;1" dur="0.7575757575757576s" begin="0s" repeatCount="indefinite"></animate>
  </rect>
</g>
<!-- [ldio] generated by https://loading.io/ --></svg>